# xmcd
#
# Track frame offsets: 
#        150
#        13991
#        28084
#        51889
#        65412
#        82815
#        103573
#        118303
#        135040
#        150617
#        162120
#        178472
#        192334
#
# Disc length: 2813 seconds
#
# Revision: 0
# Processed by: cddbd v1.5.2PL0 Copyright (c) Steve Scherf et al.
# Submitted via: ExactAudioCopy v0.99pb4
#
DISCID=a90afb0d
DTITLE=Various Artist - This Is Funk Disc 3
DYEAR=2007
DGENRE=Funk
TTITLE0=Speedometer - Work It Out
TTITLE1=The Mighty Imperials - Thunder Chicken
TTITLE2=Quantic feat. Spanky Wilson - Don`t Joke With A Hungry Man
TTITLE3=Joseph Henry - Who`s The King (You Know That`s Me
TTITLE4=The Mighty Show Stoppers - Hippy Skippy Moon Strut
TTITLE5=Marva Whitney - I Am What I Am (Parts 1 and 2)
TTITLE6=Sharon Jones and The Dap-Kings - My Man Is A Mean Man
TTITLE7=Lack Of Afro - Roderigo
TTITLE8=The Budos Band - Up From The South
TTITLE9=Ria Currie and The Deep Soul Messengers - Everything Is Gonna Be
TTITLE9=Alright
TTITLE10=The Bamboos feat. Alice Russel - Step It Up
TTITLE11=Menahan Street Band - Make The Road By Walking
TTITLE12=The Broken Keys - The Witch (The Bamboos` Version)
EXTD=
EXTT0=
EXTT1=
EXTT2=
EXTT3=
EXTT4=
EXTT5=
EXTT6=
EXTT7=
EXTT8=
EXTT9=
EXTT10=
EXTT11=
EXTT12=
PLAYORDER=
